<svg width="53" height="53" viewBox="0 0 53 53" fill="none" xmlns="http://www.w3.org/2000/svg">
<path d="M27.92 26.5103C27.92 27.6103 27.03 28.4902 25.94 28.4902C24.85 28.4902 23.96 27.6003 23.96 26.5103C23.96 25.4203 24.85 24.5303 25.94 24.5303C27.03 24.5303 27.92 25.4103 27.92 26.5103Z" stroke="#666666" stroke-width="2.5" stroke-miterlimit="10"/>
<path d="M25.9301 13.8704V24.5203" stroke="#666666" stroke-width="2.5" stroke-miterlimit="10"/>
<path d="M27.74 25.7002L42.54 16.6902" stroke="#666666" stroke-width="2.5" stroke-miterlimit="10"/>
<path d="M1.77002 25.0002C2.33002 11.8002 13.21 1.28027 26.54 1.28027C39.52 1.28027 50.18 11.2602 51.24 23.9702L51.31 26.9402C50.85 40.2302 39.93 50.8604 26.53 50.8604C13.78 50.8604 3.28001 41.2303 1.89001 28.8503L1.77002 25.0002Z" stroke="#666666" stroke-width="2.5" stroke-miterlimit="10"/>
<path d="M25.8201 3.51025V8.25024" stroke="#666666" stroke-width="2.5" stroke-miterlimit="10"/>
<path d="M26.61 44.7603V48.8103" stroke="#666666" stroke-width="2.5" stroke-miterlimit="10"/>
<path d="M5.48999 26.9402H9.80998" stroke="#666666" stroke-width="2.5" stroke-miterlimit="10"/>
<path d="M43.41 26.9402H47.6" stroke="#666666" stroke-width="2.5" stroke-miterlimit="10"/>
</svg>
