<svg width="43" height="52" viewBox="0 0 43 52" fill="none" xmlns="http://www.w3.org/2000/svg">
<path d="M0.300049 1.56055H43" stroke="#666666" stroke-width="2.5" stroke-miterlimit="10"/>
<path d="M3.79004 8.81055C3.79004 8.81055 4.44 12.8805 8.12 15.7605C11.81 18.6405 17.78 20.0006 17.91 24.1006C18.02 27.8306 13.3499 29.4604 9.68994 32.9104C6.70994 35.7204 4.12004 38.9505 3.79004 41.5505L7.25 41.5305L38.79 41.3804C38.79 41.3804 37.2499 36.8406 33.6899 33.6206C30.4799 30.7106 24.7399 27.8206 24.6899 24.3606C24.6199 19.3506 31.11 18.4404 34.33 15.9304C37.35 13.5804 38.93 11.3205 39.26 8.80054H3.79004V8.81055Z" stroke="#666666" stroke-width="2.5" stroke-miterlimit="10"/>
<path d="M7.85986 41.5404C8.67986 39.6304 9.6899 37.8003 12.0199 37.1503C15.0599 36.3103 16.5398 35.8904 18.3298 35.0304C19.8398 34.3104 20.8499 33.8003 21.2599 32.9203C22.0999 31.0903 21.4298 34.0304 25.4498 35.5604C27.4998 36.3404 29.4699 36.6403 31.3499 37.1303C33.1899 37.6103 35.5298 39.1603 35.3198 41.4103" stroke="#666666" stroke-width="2.5" stroke-miterlimit="10"/>
<path d="M14.1401 19.3406C16.0201 19.7306 21.0001 20.9306 21.3801 23.8606L21.6101 25.5706C21.6101 25.5706 21.7101 23.2704 22.6401 22.2004C24.0501 20.5704 27.0801 19.2405 29.1001 18.7605" stroke="#666666" stroke-width="2.5" stroke-miterlimit="10"/>
<path d="M43 49.8406H0.300049" stroke="#666666" stroke-width="2.5" stroke-miterlimit="10"/>
</svg>
