<svg width="49" height="59" viewBox="0 0 49 59" fill="none" xmlns="http://www.w3.org/2000/svg">
<path d="M32.9101 17.6401C32.9101 24.4001 28.6002 29.8801 23.2802 29.8801C17.9602 29.8801 13.6501 24.4001 13.6501 17.6401C13.6501 10.8801 17.9602 5.40015 23.2802 5.40015C25.1702 5.40015 26.9301 6.09028 28.4201 7.29028C28.7101 7.53028 29.0001 7.7803 29.2701 8.0603C31.4901 10.2903 32.9101 13.7501 32.9101 17.6401Z" stroke="#666666" stroke-width="2.5" stroke-miterlimit="10"/>
<path d="M19.3301 29.1501C19.4201 32.1301 19.0001 37.4902 19.0001 37.4902C19.0001 37.4902 6.30005 41.7403 4.49005 42.5703C2.68005 43.4003 1.31006 45.9503 1.31006 52.0703" stroke="#666666" stroke-width="2.5" stroke-miterlimit="10"/>
<path d="M29.2499 27.5203C29.1599 30.5003 29.58 37.4902 29.58 37.4902C29.58 37.4902 42.28 41.7403 44.09 42.5703C45.9 43.4003 47.2499 48.4603 47.2499 52.0203" stroke="#666666" stroke-width="2.5" stroke-miterlimit="10"/>
<path d="M19 37.5002L24.47 54.4202L29.57 37.5002" stroke="#666666" stroke-width="2.5" stroke-miterlimit="10"/>
<path d="M9.56017 35.6702C9.56017 35.6702 9.45016 17.5503 10.0502 13.2503C10.6502 8.94028 14.1402 1.33033 22.8202 1.30033C26.7802 1.29033 36.7602 3.20022 36.7602 15.4402C36.7502 27.6802 36.7602 34.9903 36.7602 34.9903" stroke="#666666" stroke-width="2.5" stroke-miterlimit="10"/>
</svg>
