<svg width="37" height="33" viewBox="0 0 37 33" fill="none" xmlns="http://www.w3.org/2000/svg">
<path d="M0.930054 9.42969C2.43005 9.42969 8.31006 9.43969 9.20006 9.43969C9.20006 9.43969 11.5801 14.0597 12.4701 15.7597C13.8401 18.3697 15.2301 20.9497 16.6201 23.5497C16.9401 24.1597 17.2801 24.7597 17.7001 25.5297C18.1001 24.8097 18.4401 24.2297 18.7401 23.6397C20.2101 20.7797 21.6701 17.9097 23.1501 15.0597C23.9901 13.4397 26.2201 9.44969 26.2201 9.44969C28.4701 9.43969 34.2301 9.43969 34.5701 9.45969C33.2401 11.9997 22.7701 32.9597 22.5401 32.9597L12.7701 32.9797C12.2701 32.9797 0.940054 9.66969 0.930054 9.42969Z" fill="#009245"/>
<path d="M36.88 0.629883C36.52 2.93988 35.13 7.51988 31.17 7.51988C21.85 7.50988 0.160034 7.51988 0.160034 7.51988C0.160034 4.06988 2.42003 0.629883 7.19003 0.629883C16.78 0.659883 36.88 0.629883 36.88 0.629883Z" fill="#009245"/>
</svg>
