<svg width="76" height="58" viewBox="0 0 76 58" fill="none" xmlns="http://www.w3.org/2000/svg">
<path d="M64.9901 18.55V8.20987C64.9901 8.20987 51.0801 0.999904 38.5601 0.999904C19.3401 0.859904 4.92008 6.96994 2.01008 23.7899C-0.319923 40.1699 11.1801 55.0999 35.1401 56.6999C49.4801 57.0599 65.5801 49.2699 65.5801 49.2699V38.3499C65.5801 38.3499 56.99 43.5899 48.91 43.5899C40.83 43.5899 31.66 38.9299 31.66 28.0099C31.66 17.0899 42.8801 14.0999 45.5601 13.8799C57.0501 12.9399 64.9901 18.55 64.9901 18.55Z" stroke="#009245" stroke-width="2" stroke-miterlimit="10" stroke-linecap="round"/>
<path d="M14.3902 43.7699V22.7599C14.3902 22.7599 14.6602 18.7299 18.9002 18.7299C23.1402 18.7299 23.5602 22.6898 23.5602 22.6898C23.5602 22.6898 23.9802 27.5699 18.9002 27.5599C18.4602 27.5599 17.0602 27.1499 17.0602 27.1499V32.3899C17.0602 32.3899 19.0502 32.5199 20.6302 32.3899C24.2002 32.0899 28.7402 29.1499 28.7402 23.6099C28.7402 17.4399 23.9002 13.5698 18.6602 13.5698C13.4202 13.5698 10.2502 16.2699 9.18018 21.2399V39.1898C9.18018 39.1998 9.5702 42.5499 14.3902 43.7699Z" fill="#009245"/>
<path d="M61.9601 34.2297H69.9601V26.8698H74.2701V22.7998H57.5901V26.8698H61.9601V34.2297Z" stroke="#009245" stroke-width="2" stroke-miterlimit="10" stroke-linecap="round"/>
</svg>
