<svg width="61" height="84" viewBox="0 0 61 84" fill="none" xmlns="http://www.w3.org/2000/svg">
<path d="M21.6901 1.31014C25.4901 -0.0798623 27.0801 3.64007 30.2101 3.24007C33.3401 2.84007 33.6401 1.00004 37.0801 1.33004C41.3001 1.74004 39.4201 4.46012 42.6201 6.54012C45.8201 8.62012 48.1801 6.8701 50.3601 9.1501C52.9601 11.8601 50.7301 13.4201 51.8201 15.5601C53.3901 18.6401 55.9301 17.66 57.1301 20.95C58.3301 24.25 54.7301 25.8001 55.3601 28.3501C55.9901 30.9001 57.1101 33.3501 56.2101 35.7501C55.2101 38.4401 53.5401 37.8801 52.0201 40.7701C50.6201 43.4201 53.4201 45.2101 50.3801 47.5601C47.3401 49.9101 44.8901 48.5901 42.4201 50.4201C39.9601 52.2501 40.9101 53.9601 37.6001 55.2701C34.9001 56.3401 32.9201 52.7801 30.2401 53.4801C27.5601 54.1801 27.4701 55.7001 23.5701 55.3801C19.6701 55.0601 21.3501 52.8101 18.9401 51.1101C15.6801 48.8101 13.9201 51.1101 11.0301 48.4901C8.37011 46.0801 9.8801 45.4301 8.7101 41.9701C7.5501 38.5101 4.36009 39.0401 3.32009 35.7801C2.28009 32.5201 5.14007 30.7301 5.11007 28.3901C5.07007 25.8201 3.29008 25.1501 3.12008 21.8101C2.95008 18.4601 6.2401 18.2401 8.3901 16.0001C10.5401 13.7701 8.06008 11.6901 9.75008 9.16011C11.4401 6.62011 13.9801 9.12008 17.0201 7.13008C20.0401 5.13008 18.7801 2.38014 21.6901 1.31014Z" stroke="#009245" stroke-width="2" stroke-miterlimit="10"/>
<path d="M50.9899 28.2402C50.9899 39.7202 41.68 49.0203 30.21 49.0203C18.73 49.0203 9.41992 39.7102 9.41992 28.2402C9.41992 16.7602 18.73 7.4502 30.21 7.4502C41.69 7.4502 50.9899 16.7602 50.9899 28.2402Z" stroke="#009245" stroke-width="2" stroke-miterlimit="10"/>
<path d="M11.0099 48.4902L2.20996 71.9702L13.7599 69.8402L20.7599 79.1902L30.21 56.0802L40.64 81.8602L47.65 72.4902L59.21 74.6002L48.9799 48.9902" stroke="#009245" stroke-width="2" stroke-miterlimit="10"/>
<path d="M23.4099 25.4104L30.0499 35.8604L38.7499 19.3203" stroke="#009245" stroke-width="2" stroke-miterlimit="10" stroke-linecap="round"/>
</svg>
