<svg width="50" height="76" viewBox="0 0 50 76" fill="none" xmlns="http://www.w3.org/2000/svg">
<path d="M1.82007 48.76C3.02007 47.39 5.92006 46.41 7.56006 46.41C11.5901 46.41 21.0001 52.87 21.0001 52.87V21.53C21.0001 21.53 21.36 16.96 24.42 16.96C28.09 16.96 28.16 21.65 28.16 21.65V39.49C28.16 39.49 30.12 37.2 32.41 37.2C34.7 37.2 36.0001 39.26 36.0001 39.26C36.0001 39.26 37.7401 37.89 39.2701 38.12C40.8001 38.35 42.4301 40.29 42.4301 40.29C42.4301 40.29 44.7 39.35 45.91 39.6C48.09 40.06 48.7401 42.12 48.7401 42.12C48.7401 42.12 48.8001 58.5899 47.7601 64.1899C46.6701 71.9699 41.4401 74.25 41.4401 74.25H26.7401C26.7401 74.25 20.87 72.31 18.79 67.16C14.65 54.48 1.82007 48.76 1.82007 48.76Z" stroke="#009245" stroke-width="2" stroke-miterlimit="10" stroke-linecap="round"/>
<path d="M14.8801 25.9901C13.7201 24.2301 13.05 22.1401 13.05 19.8901C13.05 13.6601 18.2301 8.6001 24.6301 8.6001C31.0201 8.6001 36.2101 13.6501 36.2101 19.8901C36.2101 22.1801 35.5101 24.3101 34.3101 26.0901" stroke="#009245" stroke-width="2" stroke-miterlimit="10" stroke-linecap="round"/>
<path d="M9.06 29.15C7.12 26.28 6 22.85 6 19.17C6 9.14004 14.35 1 24.64 1C34.93 1 43.28 9.13004 43.28 19.17C43.28 22.86 42.15 26.29 40.22 29.15" stroke="#009245" stroke-width="2" stroke-miterlimit="10" stroke-linecap="round"/>
</svg>
