<svg width="84" height="54" viewBox="0 0 84 54" fill="none" xmlns="http://www.w3.org/2000/svg">
<path d="M10.0301 1.16016C5.51005 1.16016 2.5 4.87986 1.85 9.35986C0.999998 15.1899 2.46001 22.92 10.05 22.96L41.92 22.9399H73.97C78.49 22.9399 81.5 19.2202 82.15 14.7402C83 8.91023 81.54 1.18014 73.95 1.14014L42.08 1.16016H10.0301Z" stroke="#009245" stroke-width="2" stroke-miterlimit="10"/>
<path d="M10.0301 31.1099C5.51005 31.1099 2.5 34.8301 1.85 39.3101C0.999998 45.1401 2.46001 52.8702 10.05 52.9102L41.92 52.8901H73.97C78.49 52.8901 81.5 49.1699 82.15 44.6899C83 38.8599 81.54 31.1298 73.95 31.0898L42.08 31.1099H10.0301Z" stroke="#009245" stroke-width="2" stroke-miterlimit="10"/>
<path d="M20.2999 36.95C20.0799 37.48 19.4799 37.7295 18.9599 37.5095C18.4299 37.2895 18.1899 36.6897 18.3999 36.1697C18.6199 35.6397 19.2199 35.3896 19.7399 35.6096C20.2699 35.8196 20.5199 36.43 20.2999 36.95Z" stroke="#009245" stroke-width="2" stroke-miterlimit="10"/>
<path d="M28.5699 45.79C28.3499 46.32 27.7499 46.5701 27.2299 46.3501C26.6999 46.1301 26.4599 45.5297 26.6699 45.0097C26.8899 44.4897 27.4899 44.2302 28.0099 44.4502C28.5299 44.6602 28.7799 45.26 28.5699 45.79Z" stroke="#009245" stroke-width="2" stroke-miterlimit="10"/>
<path d="M13.49 16.85C13.27 17.38 12.6701 17.63 12.1501 17.41C11.6201 17.19 11.3801 16.5897 11.5901 16.0697C11.8101 15.5497 12.41 15.2897 12.93 15.5097C13.45 15.7297 13.7 16.33 13.49 16.85Z" stroke="#009245" stroke-width="2" stroke-miterlimit="10"/>
<path d="M30.6099 6.58973C30.3899 7.11973 29.7899 7.36979 29.2699 7.14979C28.7399 6.92979 28.4999 6.32994 28.7099 5.80994C28.9299 5.28994 29.5299 5.02988 30.0499 5.24988C30.5799 5.46988 30.8299 6.06973 30.6099 6.58973Z" stroke="#009245" stroke-width="2" stroke-miterlimit="10"/>
<path d="M31.5799 17.3997C31.3599 17.9297 30.7599 18.1797 30.2399 17.9597C29.7099 17.7397 29.4699 17.1399 29.6799 16.6199C29.8999 16.0899 30.4999 15.8398 31.0199 16.0598C31.5499 16.2698 31.7999 16.8697 31.5799 17.3997Z" stroke="#009245" stroke-width="2" stroke-miterlimit="10"/>
<path d="M56.2501 9.99001C56.0301 10.52 55.4301 10.7696 54.9101 10.5496C54.3801 10.3296 54.1401 9.72973 54.3501 9.20973C54.5701 8.67974 55.1701 8.42968 55.6901 8.64968C56.2101 8.85968 56.4601 9.46001 56.2501 9.99001Z" stroke="#009245" stroke-width="2" stroke-miterlimit="10"/>
<path d="M64.3299 13.99C64.1099 14.52 63.5099 14.7696 62.9899 14.5496C62.4599 14.3296 62.2199 13.7297 62.4299 13.2097C62.6499 12.6797 63.2499 12.4297 63.7699 12.6497C64.2999 12.8597 64.5499 13.47 64.3299 13.99Z" stroke="#009245" stroke-width="2" stroke-miterlimit="10"/>
<path d="M51.9601 46.7499C51.7401 47.2799 51.14 47.5299 50.62 47.3099C50.09 47.0899 49.85 46.4901 50.06 45.9701C50.28 45.4501 50.8801 45.19 51.4001 45.41C51.9201 45.62 52.1701 46.2199 51.9601 46.7499Z" stroke="#009245" stroke-width="2" stroke-miterlimit="10"/>
<path d="M61.91 41.1C61.69 41.63 61.09 41.88 60.57 41.66C60.04 41.44 59.8 40.8397 60.01 40.3197C60.23 39.7997 60.83 39.5397 61.35 39.7597C61.87 39.9697 62.12 40.58 61.91 41.1Z" stroke="#009245" stroke-width="2" stroke-miterlimit="10"/>
<path d="M45.5299 38.7001C45.3099 39.2301 44.7099 39.4796 44.1899 39.2596C43.6599 39.0396 43.4199 38.4398 43.6299 37.9198C43.8499 37.3998 44.4498 37.1397 44.9698 37.3597C45.4998 37.5697 45.7499 38.1801 45.5299 38.7001Z" stroke="#009245" stroke-width="2" stroke-miterlimit="10"/>
<path d="M75.66 15.4398C75.44 15.9698 74.84 16.2199 74.32 15.9999C73.79 15.7799 73.55 15.18 73.76 14.66C73.98 14.14 74.58 13.88 75.1 14.1C75.63 14.31 75.88 14.9098 75.66 15.4398Z" stroke="#009245" stroke-width="2" stroke-miterlimit="10"/>
</svg>
